<svg xmlns="http://www.w3.org/2000/svg" viewBox="0 0 420 260" role="img" aria-labelledby="title desc">
  <title id="title">Kendaraan inventaris kantor</title>
  <desc id="desc">Ilustrasi kendaraan mobil putih untuk kartu inventaris kantor.</desc>
  <defs>
    <linearGradient id="body" x1="70" x2="350" y1="90" y2="190" gradientUnits="userSpaceOnUse">
      <stop offset="0" stop-color="#ffffff"/>
      <stop offset="0.55" stop-color="#e9eef5"/>
      <stop offset="1" stop-color="#cfd8e5"/>
    </linearGradient>
    <linearGradient id="glass" x1="125" x2="275" y1="62" y2="123" gradientUnits="userSpaceOnUse">
      <stop offset="0" stop-color="#d9f2ff"/>
      <stop offset="1" stop-color="#8db7d8"/>
    </linearGradient>
    <filter id="shadow" x="-20%" y="-20%" width="140%" height="150%">
      <feDropShadow dx="0" dy="14" stdDeviation="12" flood-color="#0f2f75" flood-opacity="0.2"/>
    </filter>
  </defs>
  <rect width="420" height="260" rx="32" fill="#f3f8ff"/>
  <ellipse cx="214" cy="204" rx="145" ry="23" fill="#b7c6d9" opacity="0.38"/>
  <g filter="url(#shadow)">
    <path d="M70 151c7-31 30-46 72-51l28-42c8-12 21-18 35-18h76c15 0 29 8 37 21l28 45c23 7 38 24 44 47l6 25c2 9-5 17-14 17H79c-10 0-17-9-14-19l5-25Z" fill="url(#body)"/>
    <path d="M177 63h95c10 0 20 5 25 14l22 36H138l24-37c3-8 7-13 15-13Z" fill="url(#glass)"/>
    <path d="M188 69h40v42h-69l19-31c3-7 5-11 10-11Zm53 0h28c8 0 15 4 19 11l19 31h-66V69Z" fill="#bfe3f5"/>
    <path d="M82 150h291l11 33H72l10-33Z" fill="#eef3f8"/>
    <path d="M88 171h48c7 0 13 6 13 13H78c0-7 4-13 10-13Zm229 0h52c7 0 12 6 13 13h-79c1-7 6-13 14-13Z" fill="#cbd5e1"/>
    <path d="M189 126h36" stroke="#94a3b8" stroke-width="6" stroke-linecap="round"/>
    <circle cx="132" cy="190" r="28" fill="#1f2937"/>
    <circle cx="132" cy="190" r="13" fill="#cbd5e1"/>
    <circle cx="322" cy="190" r="28" fill="#1f2937"/>
    <circle cx="322" cy="190" r="13" fill="#cbd5e1"/>
    <path d="M70 154h38c-1 11-14 18-43 18l5-18Zm315 0h-38c1 11 14 18 43 18l-5-18Z" fill="#e2e8f0"/>
  </g>
</svg>
